<?xml version="1.0" standalone="no"?>
<!DOCTYPE svg PUBLIC "-//W3C//DTD SVG 20010904//EN"
 "http://www.w3.org/TR/2001/REC-SVG-20010904/DTD/svg10.dtd">
<svg version="1.0" xmlns="http://www.w3.org/2000/svg"
 width="512.000000pt" height="512.000000pt" viewBox="0 0 512.000000 512.000000"
 preserveAspectRatio="xMidYMid meet">

<g transform="translate(0.000000,512.000000) scale(0.100000,-0.100000)"
fill="#000000" stroke="none">
<path d="M3548 3812 c-113 -113 -138 -143 -138 -167 0 -23 25 -53 137 -167 75
-76 145 -140 155 -144 45 -14 107 52 92 98 -3 12 -29 46 -57 75 l-50 53 37 0
c113 0 316 -67 441 -146 115 -72 184 -132 261 -228 162 -202 243 -468 215
-708 -29 -255 -124 -467 -282 -627 -414 -420 -1159 -377 -1511 89 -71 93 -144
247 -174 365 -16 66 -28 153 -35 255 -20 305 -92 512 -250 716 -138 180 -366
333 -592 398 -196 57 -401 57 -622 1 -623 -158 -975 -780 -810 -1432 78 -308
303 -582 590 -718 129 -61 256 -96 439 -120 l49 -7 -59 -59 c-49 -50 -58 -64
-58 -95 0 -44 31 -74 77 -74 27 0 51 20 169 138 113 113 138 143 138 167 0 23
-25 53 -137 167 -126 127 -140 138 -173 138 -39 0 -63 -18 -74 -57 -9 -29 6
-57 63 -117 l46 -48 -64 6 c-94 10 -243 52 -328 91 -115 53 -203 117 -294 213
-120 127 -198 270 -245 447 -29 110 -26 390 5 505 74 275 255 505 494 626 92
47 226 90 327 105 116 17 315 7 410 -21 346 -99 606 -360 705 -705 20 -68 28
-130 36 -255 11 -186 27 -273 71 -398 37 -107 56 -145 123 -249 217 -333 613
-539 1000 -520 505 26 893 305 1053 759 47 133 66 244 66 398 0 333 -116 615
-342 832 -97 93 -165 141 -280 198 -120 59 -331 120 -419 120 -15 0 -38 3 -51
7 -23 5 -21 8 31 62 30 31 58 66 61 78 8 26 -16 78 -39 87 -50 19 -67 8 -207
-132z"/>
<path d="M1173 3269 c-56 -16 -153 -79 -174 -112 -25 -40 -22 -126 5 -156 17
-19 17 -21 -19 -68 -20 -26 -51 -78 -68 -114 l-31 -67 -49 -5 c-93 -12 -128
-53 -135 -160 -8 -138 30 -200 132 -212 l55 -7 22 -55 c12 -30 41 -81 64 -112
l42 -57 -19 -34 c-23 -45 -23 -107 1 -147 28 -45 148 -113 201 -113 53 0 92
21 118 62 l21 32 140 1 c126 1 141 -1 146 -16 3 -10 22 -32 41 -48 28 -25 44
-31 80 -31 83 0 204 80 225 149 10 32 8 45 -12 90 -14 35 -19 58 -13 65 42 56
96 146 105 176 11 35 14 38 60 43 111 13 143 60 137 204 -3 94 -3 95 -39 128
-29 26 -49 35 -93 40 -31 4 -56 12 -56 17 0 20 -53 121 -87 165 -35 46 -35 47
-20 77 25 50 29 73 18 113 -13 46 -45 78 -122 122 -89 49 -158 41 -206 -27
l-27 -38 -138 0 -138 1 -24 36 c-15 22 -41 43 -66 53 -22 9 -41 16 -43 15 -1
0 -17 -5 -34 -10z m453 -392 c69 -35 106 -68 143 -125 89 -140 72 -319 -42
-435 -78 -80 -131 -101 -247 -102 -82 0 -103 4 -150 26 -120 57 -192 167 -198
304 -5 113 21 180 102 261 83 82 141 105 256 101 68 -3 95 -9 136 -30z"/>
<path d="M1455 2745 c-5 -2 -22 -6 -37 -9 -62 -14 -127 -102 -128 -174 0 -40
24 -99 53 -130 80 -86 233 -69 293 34 50 86 21 205 -63 250 -37 21 -98 36
-118 29z"/>
<path d="M3692 3025 c-13 -16 -56 -173 -126 -450 -58 -233 -106 -432 -106
-440 0 -27 47 -65 78 -65 62 0 64 5 177 457 58 233 105 436 105 453 0 66 -88
97 -128 45z"/>
<path d="M3006 2751 c-138 -138 -159 -164 -159 -191 0 -27 21 -53 159 -191
140 -140 163 -159 191 -159 45 0 73 30 73 77 0 33 -11 47 -117 155 l-117 118
111 113 c62 61 117 124 122 139 19 51 -14 98 -68 98 -33 0 -49 -12 -195 -159z"/>
<path d="M4031 2884 c-39 -50 -31 -67 101 -201 l122 -123 -122 -123 c-101
-102 -122 -129 -122 -154 0 -42 33 -73 78 -73 35 0 48 10 195 158 141 142 157
162 157 192 0 31 -16 50 -158 192 -146 146 -160 158 -194 158 -28 0 -42 -6
-57 -26z"/>
</g>
</svg>
