<svg xmlns="http://www.w3.org/2000/svg" xmlns:xlink="http://www.w3.org/1999/xlink" version="1.1" x="0px" y="0px" viewBox="0 0 128 160" style="enable-background:new 0 0 128 128;" xml:space="preserve"><g><g><polygon points="77.098,48.386 74.013,48.386 62.772,80.127 65.922,80.127   "/><polygon points="61.81,69.044 50.038,64.257 61.81,59.47 60.947,56.944 46.622,62.945 46.622,65.568 60.947,71.568   "/><polygon points="78.922,71.568 93.247,65.568 93.247,62.945 78.922,56.944 78.06,59.47 89.832,64.257 78.06,69.044   "/><path d="M58.494,30.869h-5.435c-0.809,0-1.465,0.65-1.465,1.452s0.656,1.452,1.465,1.452h5.435c0.809,0,1.465-0.65,1.465-1.452    S59.303,30.869,58.494,30.869z"/><path d="M46.118,30.869h-5.435c-0.809,0-1.465,0.65-1.465,1.452s0.656,1.452,1.465,1.452h5.435c0.809,0,1.465-0.65,1.465-1.452    S46.927,30.869,46.118,30.869z"/><path d="M64,2C29.813,2,2,29.813,2,64s27.813,62,62,62s62-27.813,62-62S98.187,2,64,2z M21.892,39.657    c0-0.311,0.256-0.565,0.57-0.565h8.371v10.568h-8.94V39.657z M94.239,100.11c0,0.311-0.256,0.565-0.57,0.565H22.461    c-0.314,0-0.57-0.254-0.57-0.565V52.564h8.94v35.779c0,1.674,1.202,3.075,2.795,3.399c0.228,0.046,0.463,0.071,0.704,0.071h59.908    V100.11z M106.108,88.343c0,0.311-0.256,0.565-0.57,0.565h-8.371H34.331c-0.314,0-0.569-0.254-0.569-0.565V40.798h72.347V88.343z     M106.108,37.893H33.762V27.89c0-0.311,0.255-0.565,0.569-0.565h71.208c0.314,0,0.57,0.254,0.57,0.565V37.893z"/></g></g><text x="0" y="143" fill="#000000" font-size="5px" font-weight="bold" font-family="'Helvetica Neue', Helvetica, Arial-Unicode, Arial, Sans-serif">Created by SBTS</text><text x="0" y="148" fill="#000000" font-size="5px" font-weight="bold" font-family="'Helvetica Neue', Helvetica, Arial-Unicode, Arial, Sans-serif">from the Noun Project</text></svg>